<svg xmlns="http://www.w3.org/2000/svg" viewBox="0 0 180 220" fill="none" aria-hidden="true">
  <g fill="currentColor">
    <path d="M89 206c2.5-35.8 4.4-70.2 3.9-105.2-.3-20.5-1.8-41.2-5.2-62l7.6-1.2c3.5 21.3 5.1 42.6 5.4 63.8.5 35.4-1.4 70.1-3.9 105.2L89 206Z"/>
    <path d="M82.1 73.5C49.3 76.7 27.4 58 20.7 25.7c29.8-7.3 55 8.2 61.4 47.8Z"/>
    <path d="M101.5 62.2c26.7-18.9 55.7-14.7 78 7.8-21.5 24.1-52.7 29.2-78-7.8Z"/>
    <path d="M91.3 115.3c-35.5 5.5-61.2-12.4-70.7-46.1 33.1-10.1 60.7 5.3 70.7 46.1Z"/>
    <path d="M102.6 113.7c30.2-20.6 62.4-15.5 86.7 9.6-24.5 25.3-59 30-86.7-9.6Z"/>
    <path d="M91.4 164.1c-30.7 6.1-55.9-7-69.1-34.2 27.6-12.8 56-3.4 69.1 34.2Z"/>
    <path d="M100.1 160.7c24.1-22.6 53.8-23.4 80.2-4.7-17.9 27.2-49.9 35.7-80.2 4.7Z"/>
  </g>
</svg>
