<?xml version="1.0" encoding="UTF-8" standalone="no"?>
<svg xmlns="http://www.w3.org/2000/svg" xmlns:xlink="http://www.w3.org/1999/xlink" width="586.125" height="844" version="1.0">
  <defs>
    <linearGradient id="g">
      <stop offset="0" stop-color="#a2a6a1"/>
      <stop offset="1" stop-color="#a2a6a1" stop-opacity="0"/>
    </linearGradient>
    <linearGradient id="j">
      <stop offset="0" stop-color="#e4e5e2"/>
      <stop offset="1" stop-color="#e4e5e2" stop-opacity="0"/>
    </linearGradient>
    <linearGradient id="f">
      <stop offset="0" stop-color="#a2a6a1"/>
      <stop offset="1" stop-color="#a2a6a1" stop-opacity="0"/>
    </linearGradient>
    <linearGradient id="i">
      <stop offset="0" stop-color="#fff"/>
      <stop offset="1" stop-color="#fff" stop-opacity="0"/>
    </linearGradient>
    <linearGradient id="e">
      <stop offset="0" stop-color="#9ea39e"/>
      <stop offset="1" stop-color="#9ea39e" stop-opacity="0"/>
    </linearGradient>
    <linearGradient id="d">
      <stop offset="0" stop-color="#9ea39e"/>
      <stop offset="1" stop-color="#9ea39e" stop-opacity="0"/>
    </linearGradient>
    <linearGradient id="c">
      <stop offset="0" stop-color="#9ea39e"/>
      <stop offset="1" stop-color="#9ea39e" stop-opacity="0"/>
    </linearGradient>
    <linearGradient id="b">
      <stop offset="0" stop-color="#acb0ab"/>
      <stop offset="1" stop-color="#acb0ab" stop-opacity="0"/>
    </linearGradient>
    <linearGradient id="a">
      <stop offset="0" stop-color="#2e3436"/>
      <stop offset="1" stop-color="#2e3436" stop-opacity="0"/>
    </linearGradient>
    <linearGradient id="h">
      <stop offset="0" stop-color="#2e3436"/>
      <stop offset="1" stop-color="#2e3436" stop-opacity="0"/>
    </linearGradient>
    <linearGradient xlink:href="#a" id="p" x1="216" x2="216" y1="435.98718" y2="439.86218" gradientTransform="translate(-243.987 -215.718) scale(1.85634)" gradientUnits="userSpaceOnUse"/>
    <linearGradient xlink:href="#a" id="q" x1="216" x2="216" y1="435.98718" y2="439.86218" gradientTransform="translate(-243.987 -205.508) scale(1.85634)" gradientUnits="userSpaceOnUse"/>
    <linearGradient xlink:href="#b" id="l" x1="204.34375" x2="208.59375" y1="551.03125" y2="551.03125" gradientTransform="translate(-243.987 -215.718) scale(1.85634)" gradientUnits="userSpaceOnUse"/>
    <linearGradient xlink:href="#c" id="m" x1="211.84375" x2="216.09375" y1="551.35938" y2="551.35938" gradientTransform="translate(-243.987 -215.718) scale(1.85634)" gradientUnits="userSpaceOnUse"/>
    <linearGradient xlink:href="#d" id="n" x1="219.34375" x2="223.59375" y1="551.35938" y2="551.35938" gradientTransform="translate(-243.987 -215.718) scale(1.85634)" gradientUnits="userSpaceOnUse"/>
    <linearGradient xlink:href="#e" id="k" x1="226.875" x2="231.09375" y1="550.9375" y2="550.9375" gradientTransform="translate(-243.987 -215.718) scale(1.85634)" gradientUnits="userSpaceOnUse"/>
    <linearGradient xlink:href="#a" id="y" x1="216" x2="216" y1="435.98718" y2="439.86218" gradientTransform="translate(-37.2201 -205.508) scale(1.85634)" gradientUnits="userSpaceOnUse"/>
    <linearGradient xlink:href="#a" id="x" x1="216" x2="216" y1="435.98718" y2="439.86218" gradientTransform="translate(-37.2201 -215.718) scale(1.85634)" gradientUnits="userSpaceOnUse"/>
    <linearGradient xlink:href="#d" id="w" x1="219.34375" x2="223.59375" y1="551.35938" y2="551.35938" gradientTransform="translate(-37.2201 -215.718) scale(1.85634)" gradientUnits="userSpaceOnUse"/>
    <linearGradient xlink:href="#c" id="v" x1="211.84375" x2="216.09375" y1="551.35938" y2="551.35938" gradientTransform="translate(-37.2201 -215.718) scale(1.85634)" gradientUnits="userSpaceOnUse"/>
    <linearGradient xlink:href="#b" id="u" x1="204.34375" x2="208.59375" y1="551.03125" y2="551.03125" gradientTransform="translate(-37.2201 -215.718) scale(1.85634)" gradientUnits="userSpaceOnUse"/>
    <linearGradient xlink:href="#e" id="t" x1="226.875" x2="231.09375" y1="550.9375" y2="550.9375" gradientTransform="translate(-37.2201 -215.718) scale(1.85634)" gradientUnits="userSpaceOnUse"/>
    <linearGradient xlink:href="#f" id="z" x1="329.875" x2="329.875" y1="390.71875" y2="427.375" gradientTransform="translate(-243.987 -215.718) scale(1.85634)" gradientUnits="userSpaceOnUse"/>
    <linearGradient xlink:href="#a" id="H" x1="216" x2="216" y1="435.98718" y2="439.86218" gradientTransform="translate(158.013 -199.508) scale(1.85634)" gradientUnits="userSpaceOnUse"/>
    <linearGradient xlink:href="#a" id="G" x1="216" x2="216" y1="435.98718" y2="439.86218" gradientTransform="translate(158.013 -209.718) scale(1.85634)" gradientUnits="userSpaceOnUse"/>
    <linearGradient xlink:href="#d" id="F" x1="219.34375" x2="223.59375" y1="551.35938" y2="551.35938" gradientTransform="translate(158.013 -209.718) scale(1.85634)" gradientUnits="userSpaceOnUse"/>
    <linearGradient xlink:href="#c" id="E" x1="211.84375" x2="216.09375" y1="551.35938" y2="551.35938" gradientTransform="translate(158.013 -209.718) scale(1.85634)" gradientUnits="userSpaceOnUse"/>
    <linearGradient xlink:href="#b" id="D" x1="204.34375" x2="208.59375" y1="551.03125" y2="551.03125" gradientTransform="translate(158.013 -209.718) scale(1.85634)" gradientUnits="userSpaceOnUse"/>
    <linearGradient xlink:href="#e" id="C" x1="226.875" x2="231.09375" y1="550.9375" y2="550.9375" gradientTransform="translate(158.013 -209.718) scale(1.85634)" gradientUnits="userSpaceOnUse"/>
    <linearGradient xlink:href="#g" id="I" x1="631.841" x2="588.95178" y1="390.36218" y2="390.36218" gradientTransform="matrix(-.70227 0 0 1 1020.21 6e-8)" gradientUnits="userSpaceOnUse"/>
    <radialGradient xlink:href="#h" id="o" cx="217.49129" cy="394.22855" r="33.00016" fx="217.49129" fy="394.22855" gradientTransform="matrix(3.92472 .19888 -.1072 2.11554 -651.579 -357.445)" gradientUnits="userSpaceOnUse"/>
    <radialGradient xlink:href="#i" id="r" cx="216.75" cy="371.36218" r="28.25" fx="216.75" fy="371.36218" gradientTransform="matrix(3.65487 0 0 .1239 -575.443 322.353)" gradientUnits="userSpaceOnUse"/>
    <radialGradient xlink:href="#j" id="A" cx="439.70035" cy="352.87976" r="46.78125" fx="439.70035" fy="352.87976" gradientTransform="matrix(2.33252 0 0 3.06166 -634.959 -721.172)" gradientUnits="userSpaceOnUse"/>
    <radialGradient xlink:href="#j" id="B" cx="439.70035" cy="352.87976" r="46.78125" fx="439.70035" fy="352.87976" gradientTransform="matrix(2.33252 0 0 3.06166 -634.959 -721.172)" gradientUnits="userSpaceOnUse"/>
    <filter id="s" width="1.0796092" height="1.6425595" x="-.03980457" y="-.32127976">
      <feGaussianBlur stdDeviation=".93706597"/>
    </filter>
  </defs>
  <g transform="translate(-36 -178.362)">
    <path fill="#d3d7cf" d="M111.38597 251.90625c-5.09039 0-5.45301 4.13333-5.45301 9.2237L98.5076 442.23928c0 .42512.06066.86676.11602 1.27623-.05723.49956-.11602.99291-.11602 1.50828v45.19032c12.64486 17.86677 33.38071 41.12069 31.84786 64.04378v401.95598c0 10.90797 8.75766 19.72369 19.66562 19.72363h19.49158c10.90798 0 19.66562-8.81567 19.66562-19.72363V554.25789c-3.9006-25.59703 19.97838-43.58189 31.84786-64.04378v-45.19032c0-.51537-.05879-1.00872-.11602-1.50828.05536-.40947.11602-.85111.11602-1.27623l-7.42536-181.10933c0-5.09039-.36264-9.2237-5.45301-9.2237-5.09038 0-5.51101 4.13333-5.51101 9.2237v162.60392c.19033.68013.34806 1.34589.34806 2.08839v5.27897c0 4.36318-3.52627 7.88945-7.88945 7.88945h-1.33424c-4.3632-.00002-7.88946-3.52627-7.88946-7.88945v-5.27897c0-.8937.19223-1.69501.46409-2.49446l-3.71268-162.19785c0-5.09039-.42065-9.2237-5.51102-9.2237-5.09038 0-5.453 4.13333-5.453 9.2237l-3.71268 162.95199c.1305.57041.23204 1.12921.23204 1.74032v5.27897c0 4.36318-3.52627 7.88945-7.88945 7.88945h-1.27624c-4.3632-.00002-7.88945-3.52627-7.88945-7.88945v-5.27897c0-.93786.16594-1.77765.46408-2.61048l-3.71268-162.08183c0-5.09039-.36264-9.2237-5.453-9.2237-5.09039 0-5.51102 4.13333-5.51102 9.2237l-3.71268 163.5901c.1305.57042.17403 1.18723.17403 1.79834v5.22096c0 4.36318-3.46826 7.88945-7.83144 7.88945h-1.33424c-4.36321-.00002-7.88946-3.52627-7.88946-7.88945v-5.22096c0-1.02509.22685-2.00387.58011-2.90054v-162.4879c0-5.09039-.42065-9.2237-5.51101-9.2237z"/>
    <path fill="url(#k)" d="M181.05679 639.64961c-2.16442 0-3.88672 1.7223-3.88672 3.88672v330.83488c3.10097-1.31271 5.79027-3.41387 7.83144-6.03311V643.53633c0-2.16442-1.72231-3.88672-3.88671-3.88672h-.05801z"/>
    <path fill="url(#l)" d="M139.2891 639.64961c-2.16442 0-3.94472 1.7223-3.94472 3.88672v325.78795c2.12501 2.39231 4.82604 4.26807 7.88945 5.395V643.53633c0-2.16442-1.72232-3.88672-3.88672-3.88672h-.05801z"/>
    <path fill="url(#m)" d="M153.21166 639.64961c-2.16442 0-3.94472 1.7223-3.94472 3.88672v332.34316c.2511.00943.50063.05801.75414.05801h7.13531V643.53633c0-2.16442-1.72231-3.88672-3.88672-3.88672h-.05801z"/>
    <path fill="url(#n)" d="M167.13423 639.64961c-2.16442 0-3.94473 1.7223-3.94473 3.88672V975.9375h6.32316c.52642 0 1.05062-.07572 1.56629-.11602V643.53633c0-2.16442-1.72231-3.88672-3.88671-3.88672h-.05801z"/>
    <path fill="url(#o)" d="M98.49143 449.91488c-.00067.03917 0 .07661 0 .11602v45.19032c12.64486 17.86677 33.38071 41.12069 31.84786 64.04378v30.45561h58.82282V559.265c-3.9006-25.59703 19.97838-43.58188 31.84787-64.04378V450.0309c0-.03941.00066-.07685 0-.11602H98.49143z" opacity=".32042254"/>
    <rect width="54.762077" height="9.2817078" x="132.38583" y="593.62335" fill="url(#p)" opacity=".32042254" ry="3.9068835"/>
    <rect width="54.762077" height="9.2817078" x="132.38583" y="603.83325" fill="url(#q)" opacity=".32042254" ry="3.9068835"/>
    <rect width="56.5" height="7" x="188.5" y="364.86218" fill="url(#r)" filter="url(#s)" opacity=".69366198" ry="2.1046145" transform="matrix(2.13561 0 0 -1.85634 -304.056 1154.68)"/>
    <path fill="#d3d7cf" d="M366.51692 254.98082c-45.89368 0-86.842 80.55037-86.84198 161.50172 0 61.88939 23.96503 106.13394 55.74826 123.56274 1.32132 4.72188 1.99956 9.46838 1.68231 14.21261v401.95598c0 10.90797 8.75766 19.72369 19.66562 19.72363h19.49158c10.90798 0 19.66562-8.81567 19.66562-19.72363V554.25789c-.72148-4.73461-.52148-9.2389.40608-13.51648 32.44482-16.91044 57.02451-61.50671 57.02449-124.25887 0-80.95135-40.94831-161.50172-86.84198-161.50172z"/>
    <path fill="url(#t)" d="M387.82418 639.64961c-2.16442 0-3.88672 1.7223-3.88672 3.88672v330.83488c3.10096-1.31271 5.79026-3.41387 7.83144-6.03311V643.53633c0-2.16442-1.72231-3.88672-3.88671-3.88672h-.05801z"/>
    <path fill="url(#u)" d="M346.05649 639.64961c-2.16442 0-3.94473 1.7223-3.94473 3.88672v325.78795c2.12501 2.39231 4.82605 4.26807 7.88946 5.395V643.53633c0-2.16442-1.72232-3.88672-3.88672-3.88672h-.05801z"/>
    <path fill="url(#v)" d="M359.97905 639.64961c-2.16442 0-3.94472 1.7223-3.94472 3.88672v332.34316c.2511.00943.50063.05801.75413.05801h7.13532V643.53633c0-2.16442-1.72232-3.88672-3.88672-3.88672h-.05801z"/>
    <path fill="url(#w)" d="M373.90161 639.64961c-2.16442 0-3.94472 1.7223-3.94472 3.88672V975.9375h6.32316c.5264 0 1.05062-.07572 1.56629-.11602V643.53633c0-2.16442-1.72231-3.88672-3.88672-3.88672h-.05801z"/>
    <rect width="54.762077" height="9.2817078" x="339.15323" y="593.62335" fill="url(#x)" opacity=".32042254" ry="3.9068835"/>
    <rect width="54.762077" height="9.2817078" x="339.15323" y="603.83325" fill="url(#y)" opacity=".32042254" ry="3.9068835"/>
    <path fill="url(#z)" d="M368.37326 254.98082c-45.89368 0-86.842 80.55037-86.84198 161.50172 0 61.88939 23.96504 106.13394 55.74826 123.56274 1.32132 4.72188 1.99956 9.46838 1.68231 14.21261v18.73745h58.82282v-18.73745c-.72148-4.73461-.52148-9.2389.40608-13.51648 32.44482-16.91044 57.02451-61.50671 57.02449-124.25887 0-80.95135-40.94831-161.50172-86.84198-161.50172z"/>
    <path fill="url(#A)" d="M368.37326 256.83716c-45.89368 0-86.842 80.55037-86.84198 161.50172 0 61.88939 23.96504 106.13394 55.74826 123.56274.13009.46488.23078.92691.34806 1.39226h60.44713c.0454-.22999.06644-.46745.11602-.69613 32.44482-16.91044 57.02451-61.50671 57.02449-124.25887 0-80.95135-40.94831-161.50172-86.84198-161.50172z"/>
    <path fill="url(#B)" d="M368.37326 256.83716c-45.89368 0-86.842 80.55037-86.84198 161.50172 0 61.88939 23.96504 106.13394 55.74826 123.56274.13009.46488.23078.92691.34806 1.39226h60.44713c.0454-.22999.06644-.46745.11602-.69613 32.44482-16.91044 57.02451-61.50671 57.02449-124.25887 0-80.95135-40.94831-161.50172-86.84198-161.50172z" opacity=".49295774"/>
    <path fill="#d3d7cf" d="m522 246.71875 10.34375 715.5c-.00001 10.90797 8.77954 19.71881 19.6875 19.71875H571.5c10.90801 0 19.6875-8.81079 19.6875-19.71875l-1.5-381.46875c10.73845-.50428 19.41964-.01082 25.21875.34375v.0625l7.21875-.0625-3.625-2.0625-1.09375-.625 1.125-.625 3.59375-2.125-3.625-2.0625-1.09375-.625 1.125-.625 3.59375-2.125-3.625-2.0625-1.09375-.625 1.125-.65625 3.59375-2.09375-3.625-2.0625-1.09375-.625 1.125-.65625 3.59375-2.09375-3.625-2.0625-1.09375-.625 1.125-.65625 3.59375-2.09375-3.625-2.0625-.6875-.40625.71875-.40625 3.59375-2.09375-3.625-2.0625-1.09375-.625 1.125-.65625L622.125 543.5l-3.625-2.09375-1.09375-.59375 1.125-.65625 3.59375-2.09375-3.625-2.09375-1.09375-.625 1.125-.625 3.59375-2.09375-3.625-2.09375-1.09375-.625 1.125-.625 3.59375-2.09375-3.625-2.09375-1.09375-.625 1.125-.625 3.59375-2.125-3.625-2.0625-.6875-.375.71875-.40625 3.59375-2.09375-3.625-2.0625-1.09375-.625 1.125-.65625 3.59375-2.09375L618.5 509.25l-1.09375-.59375 1.125-.65625 3.59375-2.09375-3.625-2.09375-1.09375-.625 1.125-.625 3.59375-2.09375-3.625-2.09375-1.09375-.625 1.125-.625 3.59375-2.09375-3.625-2.09375-1.09375-.625 1.125-.625 3.59375-2.125L618.5 487.5l-.6875-.375.71875-.40625 3.59375-2.125-3.625-2.0625-1.09375-.625 1.125-.625 3.59375-2.125-3.625-2.0625-1.09375-.625 1.125-.625 3.59375-2.125-3.625-2.0625-1.09375-.625 1.125-.65625 3.59375-2.09375-3.625-2.0625-1.09375-.625 1.125-.65625 3.59375-2.09375-3.625-2.0625-1.09375-.625 1.125-.65625 3.59375-2.09375-3.625-2.0625-.6875-.375.71875-.40625 3.59375-2.125-3.625-2.0625-1.09375-.625 1.125-.625L622.125 447l-3.625-2.0625-1.09375-.625 1.125-.625 3.59375-2.125L618.5 439.5l-1.09375-.625 1.125-.65625 3.59375-2.09375-3.625-2.0625-1.09375-.625 1.125-.65625 3.59375-2.09375-3.625-2.0625-1.09375-.625 1.125-.65625L622.125 425.25l-3.625-2.0625-.6875-.375.71875-.4375 3.59375-2.09375-3.625-2.0625-1.09375-.625 1.125-.65625 3.59375-2.09375L618.5 412.75l-1.09375-.59375 1.125-.65625 3.59375-2.09375-3.625-2.09375-1.09375-.625 1.125-.625 3.59375-2.09375-3.625-2.09375-1.09375-.625 1.125-.625 3.59375-2.09375-3.625-2.09375-1.09375-.625 1.125-.625 3.59375-2.125L618.5 391l-1.09375-.625 1.125-.65625 3.59375-2.125-3.625-2.0625-1.09375-.625 1.125-.625 3.59375-2.125-3.625-2.0625-1.09375-.625 1.125-.625 3.59375-2.125-3.625-2.0625-1.09375-.625 1.125-.65625 3.59375-2.09375-3.625-2.0625-1.09375-.625 1.125-.65625 3.59375-2.09375-3.625-2.0625-1.09375-.625 1.125-.65625 3.59375-2.09375-3.625-2.0625-.6875-.40625.71875-.40625 3.59375-2.09375-3.625-2.0625-1.09375-.625 1.125-.65625L622.125 350l-3.625-2.09375-1.09375-.59375 1.125-.65625 3.59375-2.09375-3.625-2.09375-1.09375-.625 1.125-.625 3.59375-2.09375-3.625-2.09375-1.09375-.625 1.125-.625 3.59375-2.09375-3.625-2.09375-1.09375-.625 1.125-.625 3.59375-2.125-3.625-2.0625-.6875-.375.71875-.40625 3.59375-2.09375-3.625-2.0625-1.09375-.625 1.125-.65625 3.59375-2.09375L618.5 315.75l-1.09375-.59375 1.125-.65625 3.59375-2.09375-3.625-2.09375-1.09375-.625 1.125-.625 3.59375-2.09375-3.625-2.09375-1.09375-.625 1.125-.625 3.59375-2.09375-3.625-2.09375-1.09375-.625 1.125-.625 3.59375-2.125L618.5 294l-.6875-.375.71875-.40625 3.59375-2.125-3.625-2.0625-1.09375-.625 1.125-.625 3.59375-2.125-3.625-2.0625-1.09375-.625 1.125-.625 3.59375-2.125-3.625-2.0625-1.09375-.625 1.125-.65625 3.59375-2.09375-3.625-2.0625-1.09375-.625 1.125-.65625 3.59375-2.09375-3.625-2.0625-1.09375-.625 1.125-.65625 3.59375-2.09375-3.625-2.0625-.6875-.375.71875-.40625 3.59375-2.125-3.625-2.0625-1.09375-.625 1.125-.625 3.59375-2.125-3.625-2.0625-1.09375-.625 1.125-.625 3.59375-2.125L618.5 246l-1.09375-.625 1.125-.65625 3.59375-2.09375-3.625-2.0625-1.09375-.625 1.125-.65625 3.59375-2.09375-3.625-2.0625-1.09375-.625 1.125-.65625L622.125 231.75l-3.625-2.0625-.6875-.375.71875-.4375 3.59375-2.09375-3.625-2.0625-1.09375-.625 1.125-.65625 3.59375-2.09375L618.5 219.25l-1.09375-.59375 1.125-.65625 3.59375-2.09375-3.625-2.09375-.96875-.53125c.00109-.06291.03021-.12466.03125-.1875l.96875-.53125 3.59375-2.09375-3.625-2.09375-.9375-.53125c-.00061-.0621.00068-.12551 0-.1875l.96875-.53125 3.59375-2.09375-3.625-2.09375-1.09375-.625 1.125-.625 3.59375-2.125L618.5 197.5l-1.59375-.90625c-15.03052-48.06807-85.49236 25.59915-94.90625 50.125z"/>
    <path fill="url(#C)" d="M583.05679 645.64961c-2.16442 0-3.88672 1.7223-3.88672 3.88672v330.83488c3.10097-1.31271 5.79027-3.41387 7.83144-6.03311V649.53633c0-2.16442-1.72231-3.88672-3.88671-3.88672h-.05801z"/>
    <path fill="url(#D)" d="M541.2891 645.64961c-2.16442 0-3.94472 1.7223-3.94472 3.88672v325.78795c2.12501 2.39231 4.82604 4.26807 7.88945 5.395V649.53633c0-2.16442-1.72232-3.88672-3.88672-3.88672h-.05801z"/>
    <path fill="url(#E)" d="M555.21166 645.64961c-2.16442 0-3.94472 1.7223-3.94472 3.88672v332.34316c.2511.00943.50063.05801.75414.05801h7.13531V649.53633c0-2.16442-1.72231-3.88672-3.88672-3.88672h-.05801z"/>
    <path fill="url(#F)" d="M569.13423 645.64961c-2.16442 0-3.94473 1.7223-3.94473 3.88672V981.9375h6.32316c.52642 0 1.05062-.07572 1.56629-.11602V649.53633c0-2.16442-1.72231-3.88672-3.88671-3.88672h-.05801z"/>
    <rect width="54.762077" height="9.2817078" x="534.38586" y="599.62335" fill="url(#G)" opacity=".32042254" ry="3.9068835"/>
    <rect width="54.762077" height="9.2817078" x="534.38586" y="609.83325" fill="url(#H)" opacity=".32042254" ry="3.9068835"/>
    <path fill="url(#I)" d="M588.31371 576.45529c0 2.16441 1.22368 3.90688 2.74369 3.90688l21.19891-6c1.52 0 2.74369-1.74247 2.74369-3.90688V220.26906c0-2.16442-1.22369-3.90689-2.74369-3.90689l-21.90118-16" opacity=".56981135"/>
  </g>
</svg>