<?xml version="1.0" encoding="UTF-8" standalone="no"?>
<svg
   xmlns="http://www.w3.org/2000/svg"
   width="600"
   height="600"
   viewBox="0 0 600.00001 600.00001"
   id="svg2"
   version="1.1">
  <defs
     id="defs4" />
  <g
     id="layer1"
     transform="translate(0,-452.36216)">
    <g
       id="g83707"
       transform="matrix(2.6164117,0,0,2.6164117,-396.76985,-161.25859)">
      <path
         style="fill:#df847b"
         d="m 249.87404,428.51411 c -15.84373,-2.84473 -22.08896,-6.3277 -36.52648,-20.37085 -9.90784,-9.63721 -14.9635,-16.98184 -19.13461,-27.79788 -7.84474,-20.34209 -7.76335,-42.00363 0.22108,-58.84031 5.03488,-10.61699 21.38876,-22.64859 35.78026,-26.32364 3.34544,-0.8543 5.5,-1.94742 5.5,-2.79043 0,-2.45243 -9.04126,-6.11405 -15.74337,-6.3759 -5.85744,-0.22886 -8.22365,-1.48533 -5.71592,-3.03519 1.10282,-0.68158 9.44058,0.58467 17.15677,2.60558 2.03362,0.53262 5.06976,2.34067 6.74699,4.01789 3.17933,3.17934 6.55553,3.55767 6.55553,0.73461 0,-2.52879 -10.52187,-15.38233 -14.95017,-18.26315 -3.02465,-1.96768 -3.47099,-2.56977 -1.90503,-2.56977 2.75692,0 12.43676,6.42279 20.21548,13.41344 4.69077,4.21553 6.79069,5.50623 8,4.91712 0.90185,-0.43933 7.93972,-0.85174 15.63972,-0.91647 l 14,-0.11768 9.29814,-9.30007 c 11.58843,-11.59084 13.62109,-10.93199 4.68781,1.51948 -3.54512,4.9413 -6.45474,9.29103 -6.46582,9.66607 -0.0111,0.37504 4.09513,2.85004 9.12489,5.5 5.53704,2.91723 11.82721,7.30022 15.9435,11.10943 6.03093,5.58104 7.72364,6.5603 14.99296,8.6737 7.752,2.25373 12.06367,4.72317 10.67366,6.11317 -0.34419,0.34419 -1.65503,-0.0951 -2.91298,-0.97619 -1.93455,-1.35501 -10.84216,-2.36386 -10.84216,-1.22795 0,0.20572 1.12675,2.39002 2.50389,4.85399 5.63294,10.07843 7.66392,24.2816 5.55783,38.86747 -4.4752,30.9933 -23.68551,55.02783 -51.56172,64.51025 -6.63894,2.25832 -10.04159,2.76817 -20,2.99682 -6.6,0.15154 -14.17811,-0.11556 -16.84025,-0.59354 z"
         id="path83715" />
      <path
         style="fill:#de625a"
         d="m 246.17418,426.56211 c -4.69707,-0.99123 -10.54707,-2.81512 -13,-4.05307 -10.35208,-5.22453 -25.41547,-19.87557 -32.45602,-31.56755 -4.34073,-7.20851 -8.95906,-21.25157 -10.39831,-31.61839 -1.72589,-12.4315 1.18132,-30.36271 6.37697,-39.33205 2.92033,-5.04143 11.55605,-13.26067 17.72753,-16.8726 5.09161,-2.97992 24.70492,-9.78396 25.9626,-9.00667 0.97665,0.6036 6.82734,-2.38137 6.82734,-3.48326 0,-0.45385 -2.26509,-3.8173 -5.03352,-7.47432 -2.76844,-3.65702 -4.65117,-6.64913 -4.18385,-6.64913 0.46732,0 4.15428,2.97631 8.19324,6.61403 l 7.34358,6.61403 4.59027,-0.83931 c 2.52466,-0.46163 9.99028,-0.85044 16.59028,-0.86404 l 12,-0.0247 5.90222,-6.25 c 3.24622,-3.4375 6.2932,-6.25 6.77106,-6.25 0.47787,0 -1.14481,3.00166 -3.60595,6.67036 -2.46114,3.66869 -4.23835,7.05293 -3.94936,7.52052 0.28899,0.46759 3.8212,2.41415 7.84937,4.32568 8.26554,3.92234 18.6365,11.35231 21.77925,15.6031 1.15458,1.56165 3.63785,3.34716 5.51839,3.96779 2.42048,0.79883 3.1078,1.43977 2.35319,2.19438 -0.75462,0.75462 -0.22464,2.54859 1.81447,6.14207 5.94228,10.47189 7.25813,20.61778 5.00643,38.60233 -2.11726,16.91079 -10.56102,36.36836 -19.89725,45.85067 -6.94715,7.05585 -12.75781,11.13701 -22.32637,15.6811 -13.6739,6.4937 -30.70191,8.09791 -47.75556,4.49904 z m 55.13743,-56.2672 c 2.15341,-4.19908 2.49296,-9.79956 0.70268,-11.58984 -1.98029,-1.98029 -9.13406,-1.46907 -11.60076,0.829 -3.27002,3.04649 -5.35394,7.71841 -5.00785,11.22707 0.25242,2.55908 0.87742,3.27502 3.43285,3.93232 1.71833,0.44199 3.69837,1.49541 4.40009,2.34093 1.13168,1.36359 1.55238,1.2793 3.72308,-0.74601 1.34597,-1.25582 3.30343,-3.95288 4.34991,-5.99347 z m -81.09732,-15.94545 c 0,-2.13987 -5.08456,-7.84439 -6.99187,-7.84439 -3.12415,0 -3.26917,1.7912 -0.44482,5.49412 2.61905,3.43375 7.43669,4.95631 7.43669,2.35027 z m 17.32321,-35.4487 c 0.39989,-2.46423 1.73415,-4.59931 4.21821,-6.75 l 3.63331,-3.14569 -2.70405,-5.37754 -2.70405,-5.37755 -6.13332,0.50936 c -8.41907,0.69918 -16.39645,4.50659 -23.15205,11.04991 -4.24421,4.11084 -5.56653,6.05346 -5.31547,7.80895 0.55821,3.90301 4.16798,4.85608 18.45337,4.87213 l 13.11916,0.0147 0.58489,-3.60431 z m 42.15047,-24.3531 c 0.57968,-0.93794 -4.35387,-4.04259 -6.42402,-4.04259 -1.89123,0 -1.10231,1.50413 1.70034,3.24177 3.20006,1.98405 3.91726,2.10564 4.72368,0.80082 z"
         id="path83713" />
      <path
         style="fill:#cf1709"
         d="m 247.32727,426.01671 c -3.51286,-0.79306 -8.48071,-2.13734 -11.03965,-2.98728 -10.04112,-3.33513 -29.26073,-22.05204 -35.66898,-34.73604 -13.00081,-25.73282 -12.05624,-58.99218 2.12105,-74.68476 4.33628,-4.79974 5.47858,-4.80281 2.562,-0.007 -3.27896,5.39183 -0.86233,11.19281 6.44743,15.47661 8.02713,4.70421 39.71807,14.38641 52.23081,15.95753 6.723,0.84416 14.89358,-1.02554 16.34666,-3.74065 0.92568,-1.72964 0.34769,-2.67872 -4.27087,-7.01292 -2.93779,-2.75692 -7.36643,-5.91135 -9.84143,-7.00986 -2.475,-1.09851 -5.98997,-3.40806 -7.81105,-5.13234 -3.1513,-2.98378 -3.69408,-3.13272 -11.25,-3.08692 -9.31813,0.0565 -9.84659,-0.7594 -3.82848,-5.91068 l 4.11047,-3.51841 -2.11047,-2.96389 c -1.16076,-1.63002 -2.11047,-3.2763 -2.11047,-3.65827 0,-0.38198 -0.71271,-2.19642 -1.58379,-4.03209 -1.11276,-2.34497 -2.07933,-3.17973 -3.25,-2.8068 -1.38313,0.44062 -1.41948,0.35608 -0.21396,-0.49755 0.79874,-0.5656 1.79803,-0.81466 2.22064,-0.55347 1.21911,0.75345 6.82711,-2.51864 6.82711,-3.9834 0,-0.72885 -2.30815,-4.37418 -5.12921,-8.10072 -2.82107,-3.72655 -4.59581,-6.59773 -3.94386,-6.38042 1.49151,0.49717 14.62672,11.66405 21.88757,18.60769 3.01942,2.8875 5.89667,5.25 6.3939,5.25 0.49724,0 1.80804,-2.0436 2.91291,-4.54134 l 2.00885,-4.54134 3.46466,2.14128 3.46467,2.14129 4.22025,-3.9004 c 2.32114,-2.14522 6.87626,-6.69019 10.12248,-10.09994 3.24622,-3.40975 6.30049,-6.19955 6.78726,-6.19955 0.48677,0 -0.91895,2.6565 -3.12384,5.90334 -4.65869,6.86022 -9.19059,18.71704 -10.35687,27.09666 -0.17597,1.26437 2.03259,1.53429 14.05945,1.71831 14.25151,0.21805 14.2669,0.21582 13.13508,-1.899 -0.62324,-1.16452 -3.14773,-4.07526 -5.61,-6.46831 -2.46227,-2.39305 -4.07365,-4.351 -3.58086,-4.351 1.79714,0 10.42369,6.0835 14.72282,10.38262 2.42648,2.42649 6.12478,4.97714 8.21844,5.66811 3.2421,1.06999 3.55733,1.41358 2.1255,2.31675 -1.52831,0.96403 -1.4033,1.54607 1.37499,6.40201 2.54815,4.45372 5.78847,13.6074 5.83394,16.48051 0.0256,1.61582 -1.88934,0.63662 -2.49659,-1.27664 -0.71646,-2.25739 -5.19979,-5.59845 -6.18733,-4.61091 -0.34835,0.34835 0.5657,3.00327 2.03121,5.89981 3.16553,6.25655 3.36505,11.05324 1.15642,27.80132 -1.83124,13.88625 -4.70327,24.73469 -8.06857,30.47714 -6.21248,10.60079 -21.53774,22.14537 -35.92327,27.06113 -6.7057,2.29145 -10.02234,2.78373 -20.5,3.04273 -8.32406,0.20577 -14.63375,-0.17272 -18.88702,-1.13294 z M 298.62569,384.428 c 1.42405,-1.69239 2.83024,-4.27989 3.12487,-5.75 0.29463,-1.47011 1.1945,-4.96248 1.99971,-7.76082 2.22551,-7.73428 1.9115,-11.6919 -1.17234,-14.77575 -1.45,-1.45 -3.74307,-2.63636 -5.09571,-2.63636 -5.50532,0 -11.51428,6.19305 -13.46474,13.87724 -1.85938,7.32538 4.30746,20.12276 9.69681,20.12276 1.36553,0 3.38888,-1.26766 4.9114,-3.07707 z m -76.6114,-25.12293 c 0.66,-0.66 1.2,-2.96938 1.2,-5.13197 0,-6.75166 -5.78368,-13.66803 -11.42963,-13.66803 -5.99805,0 -5.30056,8.70989 1.26718,15.82404 3.89484,4.21887 6.76614,5.17227 8.96245,2.97596 z m 77.29021,-23.55 c 8.15913,-4.23244 10.00426,-6.26782 8.24121,-9.09091 -1.0202,-1.6336 -0.87444,-1.79439 1.2573,-1.38688 2.64681,0.50597 3.38982,-1.45948 0.91128,-2.41058 -2.44721,-0.93909 -1.74173,-1.96329 2.5,-3.62949 2.2,-0.86419 4,-2.01545 4,-2.55837 0,-1.55715 -18.29831,-2.61967 -20.92309,-1.21493 -2.58242,1.38207 -2.39529,4.23247 0.30379,4.62738 1.03438,0.15135 2.38438,0.82259 3,1.49166 0.85412,0.92827 0.70469,1.07058 -0.6307,0.60068 -2.03396,-0.71571 -2.06046,-0.62534 -0.79365,2.70663 l 0.95635,2.5154 -4.65213,-2.9503 c -5.58352,-3.54096 -6.84139,-3.65656 -7.61959,-0.70029 -0.55338,2.10218 0.05,11.70504 0.91114,14.5 0.6852,2.22405 5.14586,1.33463 12.53809,-2.5 z m -54.09021,-35.75 c -0.70675,-0.85158 -1.51,-1.32333 -1.785,-1.04833 -0.275,0.275 0.0782,1.19675 0.785,2.04833 0.70675,0.85158 1.51,1.32333 1.785,1.04833 0.275,-0.275 -0.0782,-1.19675 -0.785,-2.04833 z m 4.91347,-3.66169 c -0.79004,-1.47619 -1.40539,-1.86255 -1.67557,-1.05202 -0.43908,1.31725 1.70056,4.60858 2.48562,3.82352 0.24119,-0.24118 -0.12334,-1.48836 -0.81005,-2.7715 z"
         id="path83711" />
      <path
         style="fill:#555139"
         d="m 293.21429,324.34436 c -4.32425,-2.8878 -4.77339,-2.97456 -11.5,-2.22118 -7.94227,0.88952 -16.26656,0.94866 -17.09378,0.12144 -0.30596,-0.30596 -0.67945,-1.38502 -0.82999,-2.39792 -0.19687,-1.32472 -0.97444,-1.75706 -2.77027,-1.54034 -3.89281,0.4698 -17.80596,-11.57159 -17.80596,-15.41049 0,-0.50623 -0.92259,-2.64177 -2.0502,-4.74565 -1.12762,-2.10388 -1.57442,-3.53118 -0.99289,-3.17178 0.58152,0.3594 1.73162,1.95742 2.55577,3.55115 1.4436,2.79161 10.03709,8.75904 11.09301,7.70313 0.9686,-0.96861 -7.92458,-18.21697 -12.43407,-24.11594 -2.47573,-3.23855 -3.95188,-5.70513 -3.28033,-5.48128 1.52129,0.5071 14.58746,11.6043 21.92321,18.61957 3.01942,2.8875 5.89667,5.25 6.3939,5.25 0.49724,0 1.80804,-2.0436 2.91291,-4.54134 l 2.00885,-4.54134 3.46466,2.14128 3.46467,2.14129 4.22025,-3.9004 c 2.32114,-2.14522 6.87626,-6.69019 10.12248,-10.09994 3.24622,-3.40975 6.30049,-6.19955 6.78726,-6.19955 0.48677,0 -0.91895,2.6565 -3.12384,5.90334 -4.16824,6.13801 -6.31036,11.10772 -8.44684,19.59666 -0.69212,2.75 -1.79615,5.99536 -2.4534,7.21192 l -1.19501,2.21191 16.26481,-0.007 c 13.69627,-0.006 17.33529,0.32385 23.0435,2.08713 12.141,3.75039 6.34046,4.98656 -13.37672,2.85076 -5.82892,-0.63139 -11.81069,-0.84363 -13.29282,-0.47164 -3.35498,0.84204 -4.33842,3.15345 -2.30004,5.40583 1.29136,1.42694 4.14455,7.38463 3.41613,7.13316 -0.12389,-0.0428 -2.25025,-1.4301 -4.72525,-3.08295 z"
         id="path83709" />
    </g>
  </g>
</svg>
